<svg xmlns="http://www.w3.org/2000/svg" width="23" height="23" viewBox="0 0 23 23" fill="none">
<mask id="mask0_547_524" style="mask-type:alpha" maskUnits="userSpaceOnUse" x="0" y="0" width="23" height="23">
<rect x="0.186279" y="11.5" width="16" height="16" transform="rotate(-45 0.186279 11.5)" fill="#D9D9D9"/>
</mask>
<g mask="url(#mask0_547_524)">
<path fill-rule="evenodd" clip-rule="evenodd" d="M17.1519 15.0522L17.1519 5.85804L17.1618 5.84815L17.1519 5.84815L17.1519 5.83801L17.1417 5.84815L7.94762 5.84816L5.94762 7.84816L13.8932 7.84817L5.20426 16.5371L6.61847 17.9514L15.1519 9.41795L15.1519 17.0522L16.3012 15.9028L17.1519 15.0522Z" fill="#1D10B6"/>
<path fill-rule="evenodd" clip-rule="evenodd" d="M5.83817 26.366L5.83816 17.1719L5.84805 17.162L5.83816 17.162L5.83816 17.1519L5.82802 17.162L-3.3661 17.162L-5.3661 19.162L2.57951 19.162L-6.10946 27.851L-4.69525 29.2652L3.83816 20.7318L3.83815 28.366L4.98753 27.2166L5.83817 26.366Z" fill="#1D10B6"/>
</g>
</svg>