<svg xmlns="http://www.w3.org/2000/svg" width="16" height="17" viewBox="0 0 16 17" fill="none">
<rect x="3.0061" y="11.4508" width="2" height="2" rx="0.5" fill="#555BFB"/>
<rect x="3.0061" y="8.45081" width="2" height="2" rx="0.5" fill="#555BFB"/>
<rect x="3.0061" y="5.45081" width="2" height="2" rx="0.5" fill="#555BFB"/>
<rect x="6.74829" y="11.4508" width="2" height="2" rx="0.5" fill="#555BFB"/>
<rect x="6.74829" y="8.45081" width="2" height="2" rx="0.5" fill="#555BFB"/>
<rect x="6.74829" y="5.45081" width="2" height="2" rx="0.5" fill="#555BFB"/>
<rect x="10.4905" y="11.4508" width="2" height="2" rx="0.5" fill="#555BFB"/>
<rect x="10.4905" y="8.45081" width="2" height="2" rx="0.5" fill="#555BFB"/>
<rect x="10.4905" y="5.45081" width="2" height="2" rx="0.5" fill="#555BFB"/>
<path fill-rule="evenodd" clip-rule="evenodd" d="M10.4905 1.52979H5.0061V2.6227C5.0061 3.17499 4.55839 3.6227 4.0061 3.6227C3.45382 3.6227 3.0061 3.17499 3.0061 2.6227V1.52979H2.99976C1.3429 1.52979 -0.000244141 2.87294 -0.000244141 4.52979V13.1327C-0.000244141 14.7895 1.3429 16.1327 2.99976 16.1327H12.9998C14.6566 16.1327 15.9998 14.7895 15.9998 13.1327V4.52979C15.9998 2.87294 14.6566 1.52979 12.9998 1.52979H12.4905V2.6227C12.4905 3.17498 12.0428 3.6227 11.4905 3.6227C10.9382 3.6227 10.4905 3.17498 10.4905 2.6227V1.52979ZM14.4998 4.52979H1.49976V13.1327C1.49976 13.9611 2.17133 14.6327 2.99976 14.6327H12.9998C13.8282 14.6327 14.4998 13.9611 14.4998 13.1327V4.52979Z" fill="#555BFB"/>
<rect x="3.2561" y="0.13269" width="1.5" height="3.24065" rx="0.75" fill="#555BFB"/>
<rect x="10.7405" y="0.13269" width="1.5" height="3.24065" rx="0.75" fill="#555BFB"/>
</svg>