<svg xmlns="http://www.w3.org/2000/svg" width="42" height="43" viewBox="0 0 42 43" fill="none">
<path d="M42 26.7637C42 35.6002 34.8366 42.7637 26 42.7637L16 42.7637C7.16344 42.7637 -1.13373e-07 35.6002 -2.53225e-07 26.7637L-4.1149e-07 16.7637C-5.51342e-07 7.92714 7.16344 0.763689 16 0.763684L26 0.76368C34.8366 0.763675 42 7.92712 42 16.7637L42 26.7637Z" fill="#1D10B6"/>
<path d="M17.7556 14.8813V18.5137H14V23.1019H17.7556V34.7637H22.3778V23.1019H26.037L26.6148 18.5137H22.3778V15.3593C22.3778 14.021 22.763 13.1607 24.5926 13.1607H27V8.95485C25.8444 8.85926 24.6889 8.76367 23.5333 8.76367C20.0667 8.76367 17.7556 10.9622 17.7556 14.8813Z" fill="#BCF178"/>
</svg>