<svg xmlns="http://www.w3.org/2000/svg" width="16" height="17" viewBox="0 0 16 17" fill="none">
<path d="M15.2251 1.92112C14.0034 0.2922 11.6415 0.0478612 10.0126 1.26955L1.94938 7.62236C0.890583 8.43682 0.239013 9.65852 0.0761203 10.9617C-0.0867722 12.2648 0.239013 13.5679 1.13492 14.6267C1.94938 15.6855 3.17108 16.3371 4.47422 16.5C4.71855 16.5 4.88145 16.5 5.12579 16.5C6.26603 16.5 7.32484 16.0928 8.22074 15.4412L11.1831 13.1418L12.7069 11.9412C13.1088 11.6245 13.1797 11.0428 12.8656 10.639C12.5496 10.2327 11.9638 10.1601 11.5582 10.477L7.0805 13.9752C6.42893 14.4638 5.61446 14.7082 4.8 14.6267C3.98554 14.5453 3.25252 14.1381 2.6824 13.405C2.19372 12.7535 1.94938 11.939 2.03083 11.1245C2.11228 10.3101 2.51951 9.57707 3.25252 9.00695L11.3157 2.65414C12.1302 2.00257 13.2704 2.16546 13.8405 2.97993C14.1663 3.38716 14.2478 3.79439 14.2478 4.28307C14.2478 4.77174 13.922 5.17897 13.5962 5.50476L5.28868 11.939C5.20723 12.0205 5.04434 12.0205 4.96289 12.0205C4.88145 12.0205 4.71855 11.939 4.63711 11.8576C4.55566 11.7761 4.55566 11.6132 4.55566 11.5318C4.55566 11.3689 4.63711 11.2874 4.71856 11.206L8.46876 8.2296L9.18215 7.69497C9.59361 7.38662 9.67217 6.80076 9.3565 6.39489C9.04431 5.9935 8.46556 5.9218 8.06485 6.23485L3.57831 9.73996C2.51951 10.5544 2.35661 12.0205 3.17108 13.0793C3.57831 13.5679 4.14843 13.8937 4.71856 13.9752C5.37013 14.0566 5.94025 13.8937 6.42893 13.4865L14.4921 7.13368C16.121 5.91199 16.4468 3.55005 15.2251 1.92112Z" fill="#BCF178"/>
</svg>