<svg xmlns="http://www.w3.org/2000/svg" width="83" height="85" viewBox="0 0 83 85" fill="none">
<g filter="url(#filter0_d_117_5742)">
<rect x="63.1501" y="58" width="43" height="43" rx="16.5" transform="rotate(180 63.1501 58)" fill="#1D10B6" stroke="#555BFB"/>
<path d="M41.6152 27.415C44.5552 27.415 44.9152 27.415 46.0652 27.475C46.7484 27.4895 47.4244 27.618 48.0652 27.855C48.5366 28.0395 48.9648 28.3196 49.3227 28.6775C49.6807 29.0355 49.9607 29.4636 50.1452 29.935C50.3894 30.5739 50.5181 31.2511 50.5252 31.935C50.6152 33.145 50.6152 33.475 50.6152 36.475C50.6152 39.475 50.6152 39.765 50.5452 40.935C50.5467 41.6375 50.4249 42.3347 50.1852 42.995C50.0023 43.4674 49.7229 43.8963 49.3647 44.2545C49.0065 44.6127 48.5776 44.8921 48.1052 45.075C47.4509 45.326 46.7561 45.4548 46.0552 45.455C44.9152 45.475 44.6152 45.475 41.6152 45.475C38.6152 45.475 38.3152 45.475 37.1552 45.405C36.4544 45.4048 35.7596 45.276 35.1052 45.025C34.6329 44.8421 34.2039 44.5627 33.8458 44.2045C33.4876 43.8463 33.2081 43.4174 33.0252 42.945C32.7836 42.3054 32.6551 41.6287 32.6452 40.945C32.6152 39.755 32.6152 39.405 32.6152 36.475C32.6152 33.545 32.6152 33.175 32.6752 32.015C32.6871 31.3316 32.8156 30.6552 33.0552 30.015C33.2398 29.5449 33.52 29.1181 33.878 28.7618C34.2361 28.4055 34.6642 28.1274 35.1352 27.945C35.7778 27.6665 36.4657 27.5072 37.1652 27.475C38.3252 27.475 38.6852 27.415 41.6152 27.415ZM41.6152 25.475C38.6152 25.475 38.2352 25.475 37.0652 25.545C36.1487 25.5635 35.2422 25.7394 34.3852 26.065C33.6476 26.3439 32.9775 26.776 32.419 27.3327C31.8605 27.8895 31.4264 28.5583 31.1452 29.295C30.8259 30.1368 30.6469 31.0253 30.6152 31.925C30.6152 33.095 30.6152 33.475 30.6152 36.475C30.6152 39.475 30.6152 39.855 30.6852 41.015C30.7023 41.9317 30.8783 42.8385 31.2052 43.695C31.4841 44.4327 31.9162 45.1028 32.4729 45.6613C33.0297 46.2198 33.6985 46.6539 34.4352 46.935C35.2922 47.2606 36.1987 47.4365 37.1152 47.455C38.2952 47.515 38.6752 47.525 41.6652 47.525C44.6552 47.525 45.0452 47.525 46.2052 47.455C47.1219 47.4379 48.0287 47.262 48.8852 46.935C49.6226 46.6529 50.2922 46.2185 50.8504 45.6602C51.4087 45.102 51.8431 44.4324 52.1252 43.695C52.4419 42.8367 52.6077 41.9299 52.6152 41.015C52.6752 39.845 52.6852 39.455 52.6852 36.475C52.6852 33.495 52.6852 33.095 52.6152 31.925C52.5967 31.0085 52.4208 30.102 52.0952 29.245C51.813 28.5077 51.3787 27.8381 50.8204 27.2798C50.2622 26.7216 49.5926 26.2872 48.8552 26.005C47.9916 25.6772 47.0787 25.498 46.1552 25.475C44.9952 25.475 44.6152 25.475 41.6152 25.475Z" fill="#BCF178"/>
<path d="M41.6154 31.165C40.5696 31.1631 39.5466 31.4712 38.6758 32.0503C37.805 32.6295 37.1254 33.4538 36.7229 34.4191C36.3204 35.3844 36.213 36.4473 36.4144 37.4736C36.6158 38.4999 37.1168 39.4434 37.8543 40.185C38.5917 40.9266 39.5324 41.433 40.5575 41.6402C41.5826 41.8474 42.6461 41.7461 43.6137 41.349C44.5812 40.952 45.4093 40.2771 45.9935 39.4096C46.5776 38.5421 46.8914 37.5209 46.8954 36.475C46.898 35.7795 46.7635 35.0903 46.4994 34.4468C46.2354 33.8033 45.847 33.2183 45.3566 32.7251C44.8662 32.2318 44.2833 31.8402 43.6413 31.5725C42.9994 31.3048 42.3109 31.1664 41.6154 31.165ZM41.6154 39.875C40.9353 39.877 40.27 39.6767 39.704 39.2997C39.138 38.9227 38.6968 38.3859 38.4366 37.7576C38.1763 37.1293 38.1088 36.4377 38.2424 35.7709C38.3761 35.1041 38.705 34.4921 39.1873 34.0126C39.6696 33.5331 40.2835 33.2078 40.9511 33.0781C41.6187 32.9483 42.3098 33.02 42.9366 33.2839C43.5634 33.5478 44.0976 33.9921 44.4713 34.5603C44.845 35.1285 45.0413 35.795 45.0354 36.475C45.0275 37.3778 44.664 38.241 44.0238 38.8775C43.3835 39.514 42.5182 39.8725 41.6154 39.875Z" fill="#BCF178"/>
<path d="M47.4351 32.045C48.2194 32.045 48.8551 31.4093 48.8551 30.625C48.8551 29.8408 48.2194 29.205 47.4351 29.205C46.6509 29.205 46.0151 29.8408 46.0151 30.625C46.0151 31.4093 46.6509 32.045 47.4351 32.045Z" fill="#BCF178"/>
</g>
<defs>
<filter id="filter0_d_117_5742" x="-0.349854" y="0.5" width="84" height="84" filterUnits="userSpaceOnUse" color-interpolation-filters="sRGB">
<feFlood flood-opacity="0" result="BackgroundImageFix"/>
<feColorMatrix in="SourceAlpha" type="matrix" values="0 0 0 0 0 0 0 0 0 0 0 0 0 0 0 0 0 0 127 0" result="hardAlpha"/>
<feOffset dy="6"/>
<feGaussianBlur stdDeviation="10"/>
<feComposite in2="hardAlpha" operator="out"/>
<feColorMatrix type="matrix" values="0 0 0 0 0.114356 0 0 0 0 0.0623438 0 0 0 0 0.7125 0 0 0 1 0"/>
<feBlend mode="normal" in2="BackgroundImageFix" result="effect1_dropShadow_117_5742"/>
<feBlend mode="normal" in="SourceGraphic" in2="effect1_dropShadow_117_5742" result="shape"/>
</filter>
</defs>
</svg>