<svg xmlns="http://www.w3.org/2000/svg" width="42" height="43" viewBox="0 0 42 43" fill="none">
<path d="M42 26.7637C42 35.6002 34.8366 42.7637 26 42.7637L16 42.7637C7.16344 42.7637 -1.13373e-07 35.6002 -2.53225e-07 26.7637L-4.1149e-07 16.7637C-5.51342e-07 7.92714 7.16344 0.763689 16 0.763684L26 0.76368C34.8366 0.763675 42 7.92712 42 16.7637L42 26.7637Z" fill="#1D10B6"/>
<path d="M20.965 12.6788C23.905 12.6788 24.265 12.6788 25.415 12.7388C26.0981 12.7533 26.7741 12.8817 27.415 13.1188C27.8864 13.3033 28.3145 13.5833 28.6725 13.9413C29.0304 14.2992 29.3105 14.7274 29.495 15.1988C29.7392 15.8376 29.8678 16.5149 29.875 17.1988C29.965 18.4088 29.965 18.7388 29.965 21.7388C29.965 24.7388 29.965 25.0288 29.895 26.1988C29.8965 26.9012 29.7746 27.5985 29.535 28.2588C29.3521 28.7311 29.0726 29.1601 28.7144 29.5182C28.3563 29.8764 27.9273 30.1559 27.455 30.3388C26.8006 30.5897 26.1058 30.7185 25.405 30.7188C24.265 30.7388 23.965 30.7388 20.965 30.7388C17.965 30.7388 17.665 30.7388 16.505 30.6688C15.8041 30.6685 15.1093 30.5397 14.455 30.2888C13.9826 30.1059 13.5537 29.8264 13.1955 29.4682C12.8373 29.1101 12.5579 28.6811 12.375 28.2088C12.1334 27.5692 12.0048 26.8924 11.995 26.2088C11.965 25.0188 11.965 24.6688 11.965 21.7388C11.965 18.8088 11.965 18.4388 12.025 17.2788C12.0368 16.5953 12.1653 15.9189 12.405 15.2788C12.5896 14.8086 12.8697 14.3818 13.2278 14.0255C13.5858 13.6692 14.0139 13.3911 14.485 13.2088C15.1275 12.9302 15.8154 12.7709 16.515 12.7388C17.675 12.7388 18.035 12.6788 20.965 12.6788ZM20.965 10.7388C17.965 10.7388 17.585 10.7388 16.415 10.8088C15.4984 10.8273 14.5919 11.0032 13.735 11.3288C12.9973 11.6076 12.3272 12.0397 11.7687 12.5965C11.2102 13.1532 10.7761 13.822 10.495 14.5588C10.1756 15.4005 9.99659 16.289 9.96497 17.1888C9.96497 18.3588 9.96497 18.7388 9.96497 21.7388C9.96497 24.7388 9.96497 25.1188 10.035 26.2788C10.0521 27.1954 10.228 28.1022 10.555 28.9588C10.8338 29.6964 11.2659 30.3665 11.8226 30.925C12.3794 31.4835 13.0482 31.9176 13.785 32.1988C14.6419 32.5244 15.5484 32.7003 16.465 32.7188C17.645 32.7788 18.025 32.7888 21.015 32.7888C24.005 32.7888 24.395 32.7888 25.555 32.7188C26.4716 32.7017 27.3784 32.5257 28.235 32.1988C28.9723 31.9166 29.6419 31.4822 30.2002 30.924C30.7584 30.3657 31.1928 29.6961 31.475 28.9588C31.7917 28.1004 31.9575 27.1937 31.965 26.2788C32.025 25.1088 32.035 24.7188 32.035 21.7388C32.035 18.7588 32.035 18.3588 31.965 17.1888C31.9465 16.2722 31.7706 15.3657 31.445 14.5088C31.1628 13.7714 30.7284 13.1018 30.1702 12.5436C29.6119 11.9853 28.9423 11.551 28.205 11.2688C27.3413 10.9409 26.4284 10.7617 25.505 10.7388C24.345 10.7388 23.965 10.7388 20.965 10.7388Z" fill="#BCF178"/>
<path d="M20.9651 16.4287C19.9193 16.4268 18.8963 16.7348 18.0255 17.314C17.1547 17.8932 16.4751 18.7175 16.0726 19.6828C15.6701 20.6481 15.5628 21.711 15.7641 22.7373C15.9655 23.7635 16.4666 24.7071 17.204 25.4487C17.9414 26.1903 18.8821 26.6967 19.9072 26.9039C20.9323 27.1111 21.9958 27.0097 22.9634 26.6127C23.9309 26.2157 24.7591 25.5408 25.3432 24.6733C25.9273 23.8057 26.2412 22.7845 26.2451 21.7387C26.2478 21.0432 26.1132 20.354 25.8492 19.7105C25.5851 19.067 25.1968 18.4819 24.7063 17.9887C24.2159 17.4955 23.633 17.1039 22.9911 16.8362C22.3491 16.5685 21.6607 16.43 20.9651 16.4287ZM20.9651 25.1387C20.285 25.1407 19.6197 24.9404 19.0537 24.5634C18.4877 24.1864 18.0466 23.6496 17.7863 23.0213C17.5261 22.3929 17.4585 21.7014 17.5922 21.0346C17.7258 20.3678 18.0547 19.7557 18.537 19.2763C19.0193 18.7968 19.6333 18.4715 20.3009 18.3417C20.9685 18.212 21.6595 18.2836 22.2863 18.5475C22.9131 18.8115 23.4473 19.2558 23.821 19.824C24.1947 20.3922 24.3911 21.0587 24.3851 21.7387C24.3772 22.6415 24.0137 23.5047 23.3735 24.1412C22.7333 24.7777 21.8679 25.1361 20.9651 25.1387Z" fill="#BCF178"/>
<path d="M26.7851 17.3088C27.5694 17.3088 28.2051 16.673 28.2051 15.8888C28.2051 15.1045 27.5694 14.4688 26.7851 14.4688C26.0009 14.4688 25.3651 15.1045 25.3651 15.8888C25.3651 16.673 26.0009 17.3088 26.7851 17.3088Z" fill="#BCF178"/>
</svg>