<svg xmlns="http://www.w3.org/2000/svg" width="42" height="43" viewBox="0 0 42 43" fill="none">
<path d="M42 26.7637C42 35.6002 34.8366 42.7637 26 42.7637L16 42.7637C7.16344 42.7637 -1.13373e-07 35.6002 -2.53225e-07 26.7637L-4.1149e-07 16.7637C-5.51342e-07 7.92714 7.16344 0.763689 16 0.763684L26 0.76368C34.8366 0.763675 42 7.92712 42 16.7637L42 26.7637Z" fill="#1D10B6"/>
<path d="M10.3501 18.0637H14.9501V32.7637H10.3501V18.0637ZM12.5501 10.7637C14.0501 10.7637 15.2501 11.9637 15.2501 13.3637C15.2501 14.8637 14.0501 16.0637 12.6501 16.0637C11.1501 16.0637 9.95007 14.8637 9.95007 13.4637C9.95007 11.9637 11.1501 10.7637 12.5501 10.7637Z" fill="#BCF178"/>
<path d="M17.75 18.0641H22.15V20.0641H22.25C23.15 18.5641 24.85 17.6641 26.55 17.6641C31.15 17.6641 32.05 20.6641 32.05 24.6641V32.7641H27.45V25.6641C27.45 23.9641 27.45 21.7641 25.05 21.7641C22.65 21.7641 22.25 23.6641 22.25 25.5641V32.7641H17.65L17.75 18.0641Z" fill="#BCF178"/>
</svg>