<svg xmlns="http://www.w3.org/2000/svg" width="83" height="85" viewBox="0 0 83 85" fill="none">
<g filter="url(#filter0_d_117_5725)">
<rect x="63.1501" y="58" width="43" height="43" rx="16.5" transform="rotate(180 63.1501 58)" fill="#1D10B6" stroke="#555BFB"/>
<path d="M31.0001 32.7998H35.6001V47.4998H31.0001V32.7998ZM33.2001 25.4998C34.7001 25.4998 35.9001 26.6998 35.9001 28.0998C35.9001 29.5998 34.7001 30.7998 33.3001 30.7998C31.8001 30.7998 30.6001 29.5998 30.6001 28.1998C30.6001 26.6998 31.8001 25.4998 33.2001 25.4998Z" fill="#BCF178"/>
<path d="M38.4003 32.8002H42.8003V34.8002H42.9003C43.8003 33.3002 45.5003 32.4002 47.2003 32.4002C51.8003 32.4002 52.7003 35.4002 52.7003 39.4002V47.5002H48.1003V40.4002C48.1003 38.7002 48.1003 36.5002 45.7003 36.5002C43.3003 36.5002 42.9003 38.4002 42.9003 40.3002V47.5002H38.3003L38.4003 32.8002Z" fill="#BCF178"/>
</g>
<defs>
<filter id="filter0_d_117_5725" x="-0.349854" y="0.5" width="84" height="84" filterUnits="userSpaceOnUse" color-interpolation-filters="sRGB">
<feFlood flood-opacity="0" result="BackgroundImageFix"/>
<feColorMatrix in="SourceAlpha" type="matrix" values="0 0 0 0 0 0 0 0 0 0 0 0 0 0 0 0 0 0 127 0" result="hardAlpha"/>
<feOffset dy="6"/>
<feGaussianBlur stdDeviation="10"/>
<feComposite in2="hardAlpha" operator="out"/>
<feColorMatrix type="matrix" values="0 0 0 0 0.114356 0 0 0 0 0.0623438 0 0 0 0 0.7125 0 0 0 1 0"/>
<feBlend mode="normal" in2="BackgroundImageFix" result="effect1_dropShadow_117_5725"/>
<feBlend mode="normal" in="SourceGraphic" in2="effect1_dropShadow_117_5725" result="shape"/>
</filter>
</defs>
</svg>