<svg xmlns="http://www.w3.org/2000/svg" width="120" height="36" viewBox="0 0 120 36" fill="none">
<g id="Frame" clip-path="url(#clip0_341_2974)">
<g id="Group">
<g id="Group_2">
<path id="Vector" d="M8.52146 26.4897H0V0.670898H7.91733L16.0254 10.3052L24.2925 0.670898H31.9237V26.4897H23.434V12.1494L16.1208 20.3529H15.5167L8.52146 12.213V26.4897Z" fill="#BCF178"/>
<path id="Vector_2" d="M46.7726 27.1573C41.5262 27.1573 38.0922 26.0763 35.9618 24.1367C33.8315 22.1971 33.0048 19.5898 33.0048 16.5691C33.0048 14.3433 33.5453 12.4674 34.5628 10.655C36.6932 7.12554 40.8585 4.96338 47.4086 4.96338C50.5882 4.96338 53.1637 5.44033 55.1987 6.39422C59.3005 8.27022 61.2401 11.6724 61.2401 16.0922V18.1589H41.4626C42.0032 20.2575 43.7202 21.2432 47.2814 21.2432C49.9841 21.2432 51.097 20.7026 51.7965 19.8123H61.0493C59.2687 25.0588 54.7218 27.1573 46.7726 27.1573ZM41.6216 13.9618H52.6232C52.0827 11.7996 50.4292 10.9729 47.2814 10.9729C44.0699 10.9729 42.2893 12.0222 41.6216 13.9618Z" fill="#BCF178"/>
<path id="Vector_3" d="M75.7393 27.1573C72.4325 27.1573 69.7298 26.7122 67.7266 25.8219C63.6248 24.0095 61.8442 20.7344 61.8442 16.2193C61.8442 13.9618 62.4166 12.0222 63.5295 10.3052C65.787 6.93476 70.0477 4.96338 75.8347 4.96338C84.4833 4.96338 89.4118 8.77896 90.0159 14.8839H80.8585C80.4134 12.7217 78.919 11.6406 75.8029 11.6406C72.3371 11.6406 70.5883 13.1669 70.5883 16.1875C70.5883 18.9856 72.3053 20.3529 75.7711 20.3529C79.0144 20.3529 80.4452 19.2082 80.8585 17.0778H90.0159C89.6344 23.2464 84.9603 27.1573 75.7393 27.1573Z" fill="#BCF178"/>
<path id="Vector_4" d="M89.7934 28.4928H93.2274C94.1177 28.4928 94.8172 28.3975 95.3578 28.2385C96.4071 27.9205 97.043 27.1574 97.7743 25.7901L98.0287 25.3132L87.5676 5.59937H96.884L102.258 16.442L102.576 17.5231L102.894 16.4738L108.299 5.59937H117.297L106.073 26.903C104.134 30.6232 102.735 32.7218 101.145 33.8983C99.4913 35.0429 97.4881 35.3291 94.2449 35.3291H89.857V28.4928H89.7934Z" fill="#BCF178"/>
</g>
<path id="Vector_5" d="M113.291 26.1081C111.987 25.5675 111.224 24.4546 111.224 22.7058C111.224 21.9109 111.415 21.2432 111.796 20.6391C112.56 19.4626 113.927 18.8267 115.644 18.8267C116.502 18.8267 117.234 18.9856 117.901 19.3036C119.205 19.9395 120 21.116 120 22.7058C120 23.5643 119.809 24.2957 119.459 24.8362C118.728 25.9809 117.393 26.5214 115.612 26.5214C114.722 26.5214 113.959 26.3942 113.291 26.1081ZM118.537 22.7058C118.537 22.1653 118.41 21.7201 118.188 21.3386C117.711 20.5437 116.82 20.1303 115.644 20.1303C115.04 20.1303 114.531 20.2257 114.086 20.4483C113.196 20.8616 112.687 21.6248 112.687 22.7058C112.687 24.4228 113.8 25.2178 115.644 25.2178C117.424 25.2496 118.537 24.4228 118.537 22.7058ZM115.008 24.5182H113.736V20.9252H115.803C117.202 20.9252 117.711 21.3386 117.711 22.1653C117.711 22.6422 117.488 22.9602 116.979 23.0874C117.456 23.2146 117.552 23.469 117.552 24.0413V24.2957C117.552 24.391 117.583 24.4864 117.647 24.5182H116.28C116.184 24.4864 116.184 24.391 116.184 24.2957V24.0095C116.184 23.5961 116.057 23.5643 115.612 23.5643H115.008V24.5182ZM115.008 22.5786H115.739C116.216 22.5786 116.343 22.4515 116.343 22.2607C116.343 22.0381 116.216 21.9427 115.771 21.9427H115.04V22.5786H115.008Z" fill="#BCF178"/>
</g>
</g>
<defs>
<clipPath id="clip0_341_2974">
<rect width="120" height="34.6582" fill="white" transform="translate(0 0.670898)"/>
</clipPath>
</defs>
</svg>