<svg xmlns="http://www.w3.org/2000/svg" width="200" height="58" viewBox="0 0 200 58" fill="none">
<path d="M14.2024 43.0313H0V0H13.1955L26.7091 16.0572L40.4875 0H53.2061V43.0313H39.0567V19.1309L26.868 32.8034H25.8612L14.2024 19.2369V43.0313Z" fill="#BCF178"/>
<path d="M77.9544 44.1442C69.2104 44.1442 63.487 42.3424 59.9364 39.1098C56.3858 35.8771 55.0079 31.5316 55.0079 26.4972C55.0079 22.7876 55.9088 19.6609 57.6046 16.6403C61.1553 10.7579 68.0975 7.1543 79.0143 7.1543C84.3137 7.1543 88.6062 7.94921 91.9979 9.53903C98.8341 12.6657 102.067 18.3361 102.067 25.7023V29.1469H69.1044C70.0053 32.6445 72.867 34.2873 78.8023 34.2873C83.3068 34.2873 85.1616 33.3864 86.3275 31.9026H101.749C98.7811 40.6466 91.203 44.1442 77.9544 44.1442ZM69.3694 22.1516H87.7053C86.8044 18.548 84.0487 17.1702 78.8023 17.1702C73.4499 17.1702 70.4822 18.919 69.3694 22.1516Z" fill="#BCF178"/>
<path d="M126.232 44.1442C120.721 44.1442 116.216 43.4023 112.878 41.9185C106.041 38.8978 103.074 33.4394 103.074 25.9142C103.074 22.1516 104.028 18.919 105.882 16.0573C109.645 10.4399 116.746 7.1543 126.391 7.1543C140.805 7.1543 149.02 13.5136 150.026 23.6885H134.764C134.022 20.0849 131.531 18.2831 126.338 18.2831C120.562 18.2831 117.647 20.8268 117.647 25.8612C117.647 30.5247 120.509 32.8035 126.285 32.8035C131.69 32.8035 134.075 30.8957 134.764 27.3451H150.026C149.391 37.6259 141.6 44.1442 126.232 44.1442Z" fill="#BCF178"/>
<path d="M149.656 46.3697H155.379C156.863 46.3697 158.029 46.2107 158.929 45.9457C160.678 45.4158 161.738 44.1439 162.957 41.8652L163.381 41.0703L145.946 8.21387H161.473L170.429 26.2849L170.959 28.0867L171.489 26.3379L180.498 8.21387H195.495L176.789 43.72C173.556 49.9203 171.224 53.4179 168.574 55.3787C165.819 57.2865 162.48 57.7634 157.075 57.7634H149.762V46.3697H149.656Z" fill="#BCF178"/>
<path d="M188.818 42.3954C186.646 41.4945 185.374 39.6397 185.374 36.7251C185.374 35.4002 185.692 34.2873 186.328 33.2804C187.599 31.3196 189.878 30.2598 192.74 30.2598C194.171 30.2598 195.39 30.5247 196.502 31.0547C198.675 32.1146 200 34.0753 200 36.7251C200 38.1559 199.682 39.3748 199.099 40.2757C197.88 42.1835 195.655 43.0844 192.687 43.0844C191.203 43.0844 189.931 42.8724 188.818 42.3954ZM197.562 36.7251C197.562 35.8242 197.35 35.0822 196.979 34.4463C196.184 33.1215 194.701 32.4325 192.74 32.4325C191.733 32.4325 190.885 32.5915 190.143 32.9625C188.659 33.6514 187.811 34.9233 187.811 36.7251C187.811 39.5867 189.666 40.9116 192.74 40.9116C195.708 40.9646 197.562 39.5867 197.562 36.7251ZM191.68 39.7457H189.56V33.7574H193.005C195.337 33.7574 196.184 34.4463 196.184 35.8242C196.184 36.6191 195.814 37.149 194.966 37.361C195.761 37.573 195.92 37.9969 195.92 38.9508V39.3748C195.92 39.5337 195.972 39.6927 196.078 39.7457H193.8C193.641 39.6927 193.641 39.5337 193.641 39.3748V38.8978C193.641 38.2089 193.429 38.1559 192.687 38.1559H191.68V39.7457ZM191.68 36.5131H192.899C193.694 36.5131 193.906 36.3011 193.906 35.9831C193.906 35.6122 193.694 35.4532 192.952 35.4532H191.733V36.5131H191.68Z" fill="#BCF178"/>
</svg>