<svg xmlns="http://www.w3.org/2000/svg" width="44" height="31" viewBox="0 0 44 31" fill="none">
<path d="M8.88889 30.7637C2.40741 30.7637 0 27.9859 0 19.9303C0 9.37479 4.90741 2.70812 14.7222 0.763672L16.3889 6.78219C10.5556 8.35627 7.87037 10.7637 7.22222 16.2266C7.96296 15.9489 8.7963 15.8563 9.81481 15.8563C15.3704 15.8563 17.4074 17.1526 17.4074 23.0785C17.4074 28.8192 14.8148 30.7637 8.88889 30.7637ZM34.537 30.7637C28.0556 30.7637 25.6481 27.9859 25.6481 19.9303C25.6481 9.37479 30.5556 2.70812 40.3704 0.763672L42.037 6.78219C36.2037 8.35627 33.5185 10.7637 32.8704 16.2266C33.6111 15.9489 34.4444 15.8563 35.463 15.8563C41.0185 15.8563 43.0555 17.1526 43.0555 23.0785C43.0555 28.8192 40.463 30.7637 34.537 30.7637Z" fill="#555BFB"/>
</svg>