<svg xmlns="http://www.w3.org/2000/svg" width="44" height="31" viewBox="0 0 44 31" fill="none">
<path d="M34.2222 0.763673C40.7037 0.763672 43.1111 3.54145 43.1111 11.597C43.1111 22.1526 38.2037 28.8192 28.3889 30.7637L26.7222 24.7452C32.5555 23.1711 35.2407 20.7637 35.8889 15.3007C35.1481 15.5785 34.3148 15.6711 33.2963 15.6711C27.7407 15.6711 25.7037 14.3748 25.7037 8.44886C25.7037 2.70812 28.2963 0.763673 34.2222 0.763673ZM8.57405 0.763675C15.0555 0.763674 17.4629 3.54145 17.4629 11.597C17.4629 22.1526 12.5555 28.8192 2.74072 30.7637L1.07405 24.7452C6.90738 23.1711 9.59257 20.7637 10.2407 15.3007C9.49998 15.5785 8.66664 15.6711 7.64812 15.6711C2.09257 15.6711 0.0555329 14.3748 0.0555324 8.44886C0.0555319 2.70812 2.64813 0.763675 8.57405 0.763675Z" fill="#555BFB"/>
</svg>