<svg xmlns="http://www.w3.org/2000/svg" width="21" height="21" viewBox="0 0 21 21" fill="none">
<g clip-path="url(#clip0_341_3595)">
<path fill-rule="evenodd" clip-rule="evenodd" d="M9.11816 0.497803H11.5557V3.01957C14.3285 3.57944 16.4307 6.00883 16.4307 8.89819V13.2986H18.4619V15.6986H13.8916V16.9986C13.8916 18.8986 12.2666 20.4986 10.3369 20.4986C8.40723 20.4986 6.78223 18.8986 6.78223 16.9986V15.6986H2.21191V13.2986H4.24316V8.89819C4.24316 6.00883 6.34536 3.57944 9.11816 3.01957V0.497803ZM9.21973 15.6986V16.9986C9.21973 17.5986 9.72754 18.0986 10.3369 18.0986C10.9463 18.0986 11.4541 17.5986 11.4541 16.9986V15.6986H9.21973ZM10.3369 5.29819C12.3682 5.29819 13.9932 6.89819 13.9932 8.89819V13.2982H6.68066V8.89819C6.68066 6.89819 8.30566 5.29819 10.3369 5.29819Z" fill="#1D10B6"/>
</g>
<defs>
<clipPath id="clip0_341_3595">
<rect width="20" height="20" fill="white" transform="translate(0.336914 0.498535)"/>
</clipPath>
</defs>
</svg>