<svg xmlns="http://www.w3.org/2000/svg" width="91" height="91" viewBox="0 0 91 91" fill="none">
<path d="M45.8314 2.89722C36.1088 2.90788 26.7874 6.77492 19.9124 13.6499C13.0375 20.5248 9.17046 29.8462 9.15979 39.5689H17.2195C17.2195 31.9805 20.234 24.7029 25.5997 19.3372C30.9655 13.9714 38.2431 10.9569 45.8314 10.9569C53.4198 10.9569 60.6973 13.9714 66.0631 19.3372C71.4289 24.7029 74.4434 31.9805 74.4434 39.5689H82.5031C82.4924 29.8462 78.6254 20.5248 71.7504 13.6499C64.8755 6.77492 55.5541 2.90788 45.8314 2.89722Z" fill="#BCF178"/>
<path d="M74.4434 51.5107C74.4434 59.099 71.4289 66.3766 66.0631 71.7423C60.6973 77.1081 53.4198 80.1226 45.8314 80.1226C38.2431 80.1226 30.9655 77.1081 25.5997 71.7423C20.234 66.3766 17.2195 59.099 17.2195 51.5107H9.15979C9.15979 61.2366 13.0234 70.5641 19.9007 77.4414C26.7779 84.3187 36.1055 88.1823 45.8314 88.1823C55.5574 88.1823 64.8849 84.3187 71.7622 77.4414C78.6395 70.5641 82.5031 61.2366 82.5031 51.5107H74.4434Z" fill="#BCF178"/>
<path d="M42.4732 47.1047L37.5836 52.2763V29.4405H32.2105V52.2763L27.321 47.1047L23.3851 50.7718L31.9418 59.8793C32.3144 60.2959 32.7695 60.6304 33.2782 60.8617C33.787 61.0929 34.3383 61.2158 34.8971 61.2226C35.4536 61.214 36.0023 61.0902 36.5086 60.859C37.0149 60.6278 37.4679 60.2942 37.8389 59.8793L46.3956 50.7718L42.4732 47.1047Z" fill="#BCF178"/>
<path d="M49.1896 43.5584L54.0791 38.3868V61.2226H59.4523V38.3868L64.3418 43.5584L68.2777 39.8912L59.7209 30.7838C59.3484 30.3672 58.8933 30.0327 58.3846 29.8014C57.8758 29.5702 57.3245 29.4472 56.7657 29.4405C56.2092 29.4491 55.6605 29.5729 55.1542 29.8041C54.6479 30.0353 54.1949 30.3689 53.8239 30.7838L45.2672 39.8912L49.1896 43.5584Z" fill="#BCF178"/>
</svg>